<mxfile host="app.diagrams.net" modified="2021-09-03T06:32:16.340Z" agent="5.0 (Windows NT 10.0; Win64; x64) AppleWebKit/537.36 (KHTML, like Gecko) Chrome/89.0.4389.114 Safari/537.36" etag="vKjaNHnZ4boQWSBY16A-" version="15.0.6" type="github">
  <diagram id="Z4o0AdI4QKbpuNDKw4A2" name="Page-1">
    <mxGraphModel dx="1422" dy="762" grid="1" gridSize="10" guides="1" tooltips="1" connect="1" arrows="1" fold="1" page="1" pageScale="1" pageWidth="827" pageHeight="1169" math="0" shadow="0">
      <root>
        <mxCell id="0" />
        <mxCell id="1" parent="0" />
        <mxCell id="-BUFCKzDCpcFsB0z394i-2" value="" style="rounded=1;whiteSpace=wrap;html=1;fillColor=#60a917;strokeColor=#2D7600;fontColor=#ffffff;" vertex="1" parent="1">
          <mxGeometry x="120" y="80" width="1160" height="260" as="geometry" />
        </mxCell>
        <mxCell id="-BUFCKzDCpcFsB0z394i-3" value="user_userinfo用户信息表" style="rounded=0;whiteSpace=wrap;html=1;fillColor=#a0522d;strokeColor=#6D1F00;fontColor=#ffffff;" vertex="1" parent="1">
          <mxGeometry x="350" y="120" width="140" height="60" as="geometry" />
        </mxCell>
        <mxCell id="-BUFCKzDCpcFsB0z394i-4" value="user_user用户登录表" style="rounded=0;whiteSpace=wrap;html=1;fillColor=#a0522d;strokeColor=#6D1F00;fontColor=#ffffff;" vertex="1" parent="1">
          <mxGeometry x="160" y="120" width="130" height="60" as="geometry" />
        </mxCell>
        <mxCell id="-BUFCKzDCpcFsB0z394i-5" value="shop_guide导购表" style="rounded=0;whiteSpace=wrap;html=1;fillColor=#a0522d;strokeColor=#6D1F00;fontColor=#ffffff;" vertex="1" parent="1">
          <mxGeometry x="540" y="120" width="120" height="60" as="geometry" />
        </mxCell>
        <mxCell id="-BUFCKzDCpcFsB0z394i-6" value="shop_shop门店表" style="rounded=0;whiteSpace=wrap;html=1;fillColor=#a0522d;strokeColor=#6D1F00;fontColor=#ffffff;" vertex="1" parent="1">
          <mxGeometry x="700" y="120" width="120" height="60" as="geometry" />
        </mxCell>
        <mxCell id="-BUFCKzDCpcFsB0z394i-7" value="shop_agent经销商表" style="rounded=0;whiteSpace=wrap;html=1;fillColor=#a0522d;strokeColor=#6D1F00;fontColor=#ffffff;" vertex="1" parent="1">
          <mxGeometry x="890" y="120" width="120" height="60" as="geometry" />
        </mxCell>
        <mxCell id="-BUFCKzDCpcFsB0z394i-8" value="" style="rounded=1;whiteSpace=wrap;html=1;fillColor=#f0a30a;strokeColor=#BD7000;fontColor=#000000;" vertex="1" parent="1">
          <mxGeometry x="110" y="540" width="1160" height="260" as="geometry" />
        </mxCell>
        <mxCell id="-BUFCKzDCpcFsB0z394i-9" value="&lt;span lang=&quot;EN-US&quot; style=&quot;font-size: 12.0pt ; font-family: &amp;#34;source han sans cn regular&amp;#34;&quot;&gt;fh_salesperson_relationship&lt;/span&gt;" style="rounded=0;whiteSpace=wrap;html=1;fillColor=#6d8764;strokeColor=#3A5431;fontColor=#ffffff;" vertex="1" parent="1">
          <mxGeometry x="260" y="640" width="260" height="60" as="geometry" />
        </mxCell>
        <mxCell id="-BUFCKzDCpcFsB0z394i-10" value="&lt;span lang=&quot;EN-US&quot; style=&quot;font-size: 12.0pt ; font-family: &amp;#34;source han sans cn regular&amp;#34;&quot;&gt;fh_offline_shop_store_relationship&lt;/span&gt;" style="rounded=0;whiteSpace=wrap;html=1;fillColor=#6d8764;strokeColor=#3A5431;fontColor=#ffffff;" vertex="1" parent="1">
          <mxGeometry x="690" y="640" width="340" height="60" as="geometry" />
        </mxCell>
        <mxCell id="-BUFCKzDCpcFsB0z394i-11" value="" style="shape=singleArrow;direction=south;whiteSpace=wrap;html=1;fillColor=#d80073;strokeColor=#A50040;fontColor=#ffffff;" vertex="1" parent="1">
          <mxGeometry x="680" y="340" width="40" height="200" as="geometry" />
        </mxCell>
      </root>
    </mxGraphModel>
  </diagram>
</mxfile>
